<svg xmlns="http://www.w3.org/2000/svg" width="55" height="55"><path fill-rule="evenodd" fill="#f50049" d="M52.066 25.883h-1.344v26.204c0 1.606-1.316 2.913-2.934 2.913H7.212c-1.618 0-2.934-1.307-2.934-2.913V25.883H2.934C1.316 25.883 0 24.576 0 22.97v-6.913c0-1.606 1.316-2.913 2.934-2.913h7.63a7.459 7.459 0 0 1-2.008-5.092s.001-.3.004-.385c.082-2.423 1.413-4.583 3.56-5.78a7.109 7.109 0 0 1 6.979.001l3.469 1.945A12.053 12.053 0 0 1 27.5 9.042a12.053 12.053 0 0 1 4.932-5.209l3.469-1.945a7.109 7.109 0 0 1 6.979-.001c2.147 1.197 3.478 3.357 3.56 5.78.003.085.004.385.004.385a7.457 7.457 0 0 1-2.008 5.092h7.63c1.618 0 2.934 1.307 2.934 2.913v6.913c0 1.606-1.316 2.913-2.934 2.913zM33 29.573h4.657c.675 0 1.222.544 1.222 1.213 0 .671-.547 1.214-1.222 1.214H33v20.573h14.788c.27 0 .49-.217.49-.486V25.883H33v3.69zM6.722 52.087c0 .269.22.486.49.486H22V32h-5.032a1.218 1.218 0 0 1-1.222-1.214c0-.669.547-1.212 1.222-1.212H22v-3.691H6.722v26.204zM2.934 15.57a.49.49 0 0 0-.49.487v6.913c0 .268.22.486.49.486H22V15.57H2.934zm18.433-9.625l-3.47-1.944a4.667 4.667 0 0 0-4.581.002c-1.395.778-2.26 2.178-2.313 3.746-.002.058-.003.303-.003.303 0 2.807 2.301 5.092 5.13 5.092h10.078a9.605 9.605 0 0 0-4.841-7.199zm3.078 9.625v37.003h6.11V15.57h-6.11zm19.552-7.821c-.053-1.568-.918-2.968-2.314-3.746a4.662 4.662 0 0 0-4.58-.002l-3.47 1.944a9.6 9.6 0 0 0-4.841 7.199H38.87c2.829 0 5.13-2.285 5.13-5.092 0 0-.001-.245-.003-.303zm8.559 8.308a.49.49 0 0 0-.49-.487H33v7.886h19.066c.27 0 .49-.218.49-.486v-6.913zM11.163 32h-.122a1.218 1.218 0 0 1-1.223-1.214c0-.669.548-1.213 1.223-1.213h.122c.675 0 1.222.544 1.222 1.213 0 .671-.547 1.214-1.222 1.214zm32.422 0h-.122a1.22 1.22 0 0 1-1.223-1.214c0-.669.548-1.213 1.223-1.213h.122c.675 0 1.222.544 1.222 1.213 0 .671-.547 1.214-1.222 1.214z"/></svg>